<?xml version="1.0" encoding="UTF-8" standalone="no"?>
<!-- Created with Inkscape (http://www.inkscape.org/) -->

<svg
   version="1.1"
   id="svg2"
   width="1242.2238"
   height="428.3327"
   viewBox="0 0 1242.2238 428.3327"
   xmlns="http://www.w3.org/2000/svg"
   xmlns:svg="http://www.w3.org/2000/svg"
   xmlns:rdf="http://www.w3.org/1999/02/22-rdf-syntax-ns#"
   xmlns:cc="http://creativecommons.org/ns#"
   xmlns:dc="http://purl.org/dc/elements/1.1/">
  <title
     id="title427">Logo for HFGude Art</title>
  <defs
     id="defs6" />
  <g
     id="g8"
     transform="translate(-128.88809,-85.833649)">
    <path
       style="fill:#000000"
       d="m 909.61196,514.10493 -2,-0.0619 -4.56121,-1.22998 -4.56121,-1.22998 -3.03504,-2.16114 -3.03503,-2.16113 -3.72373,-4.12172 -3.72372,-4.12172 -1.79944,-4.19792 -1.79944,-4.19793 -1.58468,-6.97174 -1.58467,-6.97175 0.0237,-7.18571 0.0237,-7.18572 -1.10477,-2.06428 -1.10478,-2.06429 h -1.03478 -1.03479 l -7.68003,4.67681 -7.68003,4.6768 -10.5,5.23446 -10.5,5.23446 -8.5,2.94945 -8.5,2.94944 -6.86769,1.27473 -6.86769,1.27473 -7.19979,-0.54452 -7.19978,-0.54452 -4.43709,-2.08568 -4.43709,-2.08568 -2.77803,-2.57593 -2.77802,-2.57593 -2.39606,-3.67931 -2.39606,-3.67931 -1.69886,-5.94454 -1.69887,-5.94455 0.52569,-12.05545 0.52569,-12.05546 2.53479,-9.5 2.5348,-9.5 4.60702,-11 4.60702,-11 6.09866,-10.5 6.09866,-10.5 5.86,-8.15378 5.86001,-8.15377 3.50044,-4.18975 3.50043,-4.18975 7.63373,-12.84327 7.63372,-12.84327 4.03868,-4.07905 4.03867,-4.07905 3.07851,-0.82944 3.07851,-0.82944 2.68826,1.86941 2.68825,1.86942 2.69727,5.51301 2.69726,5.51301 -0.55607,6.13243 -0.55607,6.13243 -4.01258,8.08043 -4.01259,8.08043 -6.85125,8.5 -6.85126,8.5 -7.53635,11 -7.53634,11 -6.72197,10.76392 -6.72197,10.76393 -3.90477,8.07455 -3.90476,8.07456 -1.11849,5.38774 -1.11849,5.38775 1.32942,2.77377 1.32941,2.77378 3.95604,1.2961 3.95603,1.29609 8.03051,-1.62664 8.03051,-1.62664 12.3611,-4.90523 12.36111,-4.90523 10.49991,-6.25463 10.49991,-6.25463 7.63899,-6.28691 7.63898,-6.28691 5.83104,-6.72268 5.83104,-6.72269 3.76296,-6.5 3.76296,-6.5 8.11894,-14.74681 8.11894,-14.74681 5.50403,-8.25319 5.50404,-8.25319 4.65029,-4.83601 4.6503,-4.83602 3.13273,-1.91025 3.13273,-1.91024 3.02749,-0.004 3.0275,-0.004 2.23589,1.56608 2.2359,1.56608 2.10221,4.12068 2.10221,4.12067 -0.44294,8.06325 -0.44294,8.06324 -2.24634,4.35459 -2.24634,4.35458 -4.18948,5.14542 -4.18948,5.14541 -6.42169,11 -6.42168,11 -7.48494,11 -7.48493,11 -6.28536,13 -6.28536,13 -2.04486,7.4799 -2.04486,7.4799 v 7.05821 7.05821 l 2.25,4.40392 2.25,4.40393 3.5,2.77075 3.5,2.77076 5.39423,1.37421 5.39422,1.37421 1.23131,1.68391 1.23131,1.68392 0.64624,4.04136 0.64624,4.04136 -1.00583,3.73535 -1.00582,3.73536 -2.76595,2.6092 -2.76595,2.6092 -4,1.08759 -4,1.0876 -2,-0.0619 z m 211.82444,-14.31254 -4.8245,0.33512 -4.4728,-1.63236 -4.4729,-1.63237 -5.1677,-5.16776 -5.1678,-5.16776 -2.2327,-4.37653 -2.2327,-4.37652 -1.9489,-5.54811 -1.9489,-5.5481 -0.5775,-9.8283 -0.5776,-9.8283 -1.4217,-1.4217 -1.4217,-1.4217 h -2.8185 -2.8186 l -6.36,4.73269 -6.36,4.7327 -3.6997,1.69591 -3.6998,1.6959 -6.1319,4.1641 -6.1319,4.16409 -5.5953,2.56162 -5.5953,2.56162 -6.073,3.44106 -6.0731,3.44106 -9,3.83525 -9,3.83524 -8.49999,2.20917 -8.49995,2.20917 -10,0.0893 -10,0.0893 -5.5,-1.69249 -5.5,-1.69248 -5.46533,-3.28661 -5.46534,-3.28661 -3.78028,-5 -3.78027,-5 -2.02489,-6.0666 -2.02489,-6.0666 -0.61258,-6.56001 -0.61259,-6.56001 1.20824,-8.2632 1.20824,-8.2632 2.85918,-8.74943 2.85918,-8.74942 4.46098,-8.86077 4.46098,-8.86076 5.9517,-9 5.9517,-9 7.99851,-9.01097 7.99851,-9.01096 9.90447,-8.57367 9.90443,-8.57366 6.49999,-5.0491 6.5,-5.04909 11,-7.19515 11,-7.19515 11,-5.32132 11,-5.32132 7.5,-2.45783 7.5,-2.45783 6.8537,-1.27477 6.8537,-1.27477 8.9232,0.50878 8.9233,0.50879 6.3947,3.14812 6.3948,3.14813 4.9685,5.43637 4.9686,5.43637 3.0801,7.39872 3.0801,7.39873 1.5296,8.77178 1.5297,8.77178 v 2.86901 2.86901 h 1.3257 1.3257 l 2.0331,-2.25 2.0331,-2.25 10.265,-14.5 10.265,-14.5 10.2667,-15.5 10.2667,-15.5 8.5349,-14.5 8.5349,-14.5 3.4235,-5.5 3.4235,-5.5 8.7773,-17.38418 8.7772,-17.38418 4.69,-4.86582 4.69,-4.86582 h 3.595 3.5949 l 2.4263,2.88352 2.4264,2.88351 1.2979,4.63578 1.2979,4.63577 -0.5055,6.23071 -0.5056,6.23071 -2.9927,6.5 -2.9927,6.5 -7.7486,10.99947 -7.7487,10.99947 -3.0202,6.00053 -3.0202,6.00053 -7.0472,12.5 -7.0471,12.5 -8.6072,13.5 -8.6071,13.5 -6.8498,9.5 -6.8498,9.5 -3.4033,4.5 -3.4032,4.5 -4.7833,7.5 -4.7833,7.5 -12.3993,15.5 -12.3993,15.5 -7.0283,10.02913 -7.0283,10.02912 -3.869,8.26889 -3.869,8.26889 -0.454,6.20199 -0.4539,6.20198 2.3229,4.48562 2.323,4.48562 4.1188,3.10501 4.1188,3.105 6.162,1.90937 6.162,1.90938 0.5992,2.33604 0.5992,2.33605 -0.5245,6.53416 -0.5245,6.53416 -1.9173,2.56801 -1.9173,2.568 -2.6137,1.95143 -2.6137,1.95142 -4.8245,0.33512 z m -146.16241,-44.65353 5.66203,0.0391 7.33797,-1.40713 7.33792,-1.40713 12.49999,-3.58658 12.5,-3.58657 10.1406,-4.91277 10.1407,-4.91276 10.3593,-5.94964 10.3594,-5.94964 10.2534,-5.23837 10.2534,-5.23838 4.3354,-5.15551 4.3354,-5.15552 3.2586,-4.82179 3.2587,-4.82178 4.342,-9.17822 4.3421,-9.17821 2.1553,-7.87462 2.1554,-7.87463 -0.3449,-8.80373 -0.3448,-8.80374 -2.0585,-2.82164 -2.0586,-2.82164 -4.4414,-2.33077 -4.4415,-2.33077 -8,0.53547 -8,0.53546 -7.6,1.96602 -7.5999,1.96602 -7.9001,3.13313 -7.9,3.13313 -8.2466,4.69615 -8.2466,4.69616 -9.2295,6.5 -9.2295,6.5 -13.1226,13 -13.1226,13 -6.50192,8.80067 -6.50193,8.80067 -4.34463,7.59344 -4.34463,7.59344 -3.28789,8.10589 -3.2879,8.10589 0.015,4.5 0.015,4.5 1.31736,1.73485 1.31736,1.73486 3.40084,1.476 3.40083,1.47601 5.66203,0.0391 z m -406.66203,34.8709 -10,-0.15183 -3.5,-0.34546 -3.5,-0.34545 -9.5,-1.61952 -9.5,-1.61952 -8.2668,-2.79832 -8.26681,-2.79832 -6.49586,-3.63269 -6.49586,-3.6327 -5.50944,-5.37893 -5.50943,-5.37893 -3.00141,-6.41386 -3.0014,-6.41386 -0.60803,-6.51117 -0.60802,-6.51118 1.71805,-7.72231 1.71805,-7.72231 4.86865,-9.6677 4.86864,-9.6677 7.29483,-9.66079 7.29484,-9.66079 10.34029,-11.56958 10.3403,-11.56958 15.6597,-15.18647 15.65971,-15.18646 18,-15.76369 18,-15.76368 13,-10.64914 13,-10.64913 15.83386,-12.17034 15.83386,-12.17035 14.16614,-10.32904 14.16614,-10.32904 16,-10.77426 16,-10.77427 12,-7.48675 12,-7.48676 14.54753,-8.10903 14.54753,-8.10903 10.95247,-4.92507 10.95247,-4.92506 7.80528,-2.6062 7.80528,-2.6062 6.52002,-1.13541 6.52002,-1.13542 4.08336,0.65296 4.08337,0.65296 2.82518,1.66887 2.82517,1.66888 1.64647,3.46966 1.64646,3.46966 -0.55637,6.63634 -0.55636,6.63634 -2.14379,6.43793 -2.1438,6.43794 -4.85555,10.22238 -4.85556,10.22237 -5.70685,9.77763 -5.70684,9.77762 -8.98566,13.75 -8.98565,13.75 h -3.1702 -3.1702 l -4.46189,-2.25 -4.46189,-2.25 -1.34949,-2.84373 -1.34949,-2.84373 0.6335,-4.22448 0.6335,-4.22448 2.97516,-6.29097 2.97516,-6.29097 11.34546,-16.64082 11.34546,-16.64082 1.71778,-3.34037 1.71779,-3.34037 -2.32242,0.69139 -2.32241,0.69138 -9.5,3.98053 -9.5,3.98053 -14,7.59491 -14,7.59491 -16.5,9.98244 -16.5,9.98243 -17.03459,11.25779 -17.03459,11.25778 -16.01515,11.4013 -16.01515,11.4013 -12.45026,9.36798 -12.45026,9.36798 -12.5,9.9776 -12.5,9.97759 -13.47271,11.58645 -13.47271,11.58645 -14.34921,13.95257 -14.34921,13.95257 -8.30274,9.54743 -8.30275,9.54743 -5.50157,7.6826 -5.50158,7.6826 -3.51843,6.3174 -3.51843,6.3174 -2.10533,6.85534 -2.10533,6.85533 0.0761,4.64467 0.0761,4.64466 1.17392,3.18234 1.17392,3.18233 2.1476,2.45751 2.14761,2.4575 5.85239,2.20276 5.8524,2.20277 7.5,2.08267 7.5,2.08267 18.5,0.068 18.5,0.068 8.47315,-1.85465 8.47315,-1.85465 9.52685,-3.31715 9.52685,-3.31715 6.5,-2.92843 6.5,-2.92843 7.87892,-4.67043 7.87892,-4.67042 20.38535,-14.51103 20.38536,-14.51103 10.23573,-8.19605 10.23572,-8.19605 9.69004,-9.71925 9.69003,-9.71925 1.15216,-2.15282 1.15215,-2.15282 -5.34219,0.67118 -5.34219,0.67118 -16.5,2.88933 -16.5,2.88933 -8.32155,1.17151 -8.32155,1.17151 -10.73193,-0.44218 -10.73194,-0.44217 -4.35793,-2.43333 -4.35793,-2.43333 -2.08859,-2.83073 -2.08858,-2.83074 0.1136,-7.16926 0.11361,-7.16927 1.06317,-2.62251 1.06317,-2.6225 5.29115,1.3725 5.29116,1.37251 9.53207,-0.005 9.53207,-0.005 13,-1.92457 13,-1.92457 23.5,-4.49363 23.5,-4.49363 8,-1.18999 8,-1.19 10,-0.0698 10,-0.0698 4.46375,1.27871 4.46374,1.27872 3.78626,3.78625 3.78625,3.78626 v 2.9462 2.9462 l -3.09071,4.66612 -3.09071,4.66612 -8.65929,8.10641 -8.65929,8.10641 -22.95702,18.64892 -22.95701,18.64891 -9.24959,8.82675 -9.24958,8.82675 -3.08886,4.66332 -3.08885,4.66331 0.29546,3.00298 0.29545,3.00298 2.69364,1.28451 2.69363,1.2845 9.0177,0.8321 9.01769,0.83211 2.53867,1.6634 2.53867,1.6634 v 2.17035 2.17035 l -5.25,5.06829 -5.25,5.06829 -7.5,3.63521 -7.5,3.63522 -5.4315,1.60309 -5.4315,1.60309 -3.5685,-0.022 -3.5685,-0.022 -4.09114,-1.85803 -4.09114,-1.85802 -4.40886,-5.25395 -4.40886,-5.25395 -2.59351,-3.03273 -2.59352,-3.03273 h -3.10544 -3.10544 l -3.80104,2.6871 -3.80105,2.6871 -5,3.97628 -5,3.97629 -7,3.44807 -7,3.44808 -7.55258,2.44909 -7.55258,2.44909 -7.94742,1.59359 -7.94742,1.59358 -9,1.00432 -9,1.00433 -10,-0.15183 z m 715.10474,0.0288 -7.1048,-0.13944 -8.5,-0.76162 -8.5,-0.76163 -9,-1.55728 -9,-1.55727 -9,-2.60351 -9,-2.6035 -9.3515,-4.42283 -9.3515,-4.42282 -6.2604,-4.46733 -6.2604,-4.46733 -6.5116,-7.03308 -6.5115,-7.03308 -3.5861,-7.26493 -3.586,-7.26492 -1.676,-7 -1.676,-7 0.041,-11 0.041,-11 1.7035,-7.37674 1.7035,-7.37675 2.8921,-7.01354 2.8922,-7.01354 5.5128,-8.28534 5.5129,-8.28534 7.4846,-7.4362 7.4846,-7.4362 8.7514,-6.24431 8.7514,-6.2443 12,-5.80845 12,-5.80845 8.5,-2.64206 8.5,-2.64205 2.5,-1.63352 2.5,-1.63352 7,-1.25724 7,-1.25724 4,-0.0273 4,-0.0273 5.4551,3.79234 5.4552,3.79233 2.2948,4.33964 2.2949,4.33964 v 4.70836 4.70836 l -3.4827,6.96144 -3.4826,6.96144 -6.3477,7.42292 -6.3477,7.42291 -9.9197,9.11277 -9.9196,9.11278 -32,18.3081 -32,18.3081 -1.75,1.48411 -1.75,1.48412 v 4.64866 4.64867 l 2.5372,5.09159 2.5373,5.09158 4.7127,3.67242 4.7128,3.67242 6.0009,2.86453 6.0008,2.86452 8.6882,2.51772 8.6881,2.51773 10.6267,1.57791 10.6267,1.57792 22.6843,0.18111 22.6843,0.18111 10,-2.30833 10,-2.30834 19.7885,-5.94676 19.7885,-5.94676 1.4615,-0.56083 1.4615,-0.56083 v 18.42353 18.42353 l -6.75,1.33671 -6.75,1.33671 -8.5,2.88012 -8.5,2.88012 -12,2.43017 -12,2.43016 -12.8952,1.03647 -12.8952,1.03646 -7.1048,-0.13943 z m -68.3346,-121.78151 5.349,-1.84033 5.5312,-2.61667 5.5312,-2.61667 6.4092,-4.1327 6.4092,-4.1327 13.7032,-10.04117 13.7032,-10.04118 -0.4473,-0.72384 -0.4474,-0.72384 -4.2558,0.93842 -4.2559,0.93842 -9,4.36651 -9,4.36651 -7.5,4.92062 -7.5,4.92062 -7.7259,6.23124 -7.7259,6.23124 -2.0635,2.89792 -2.0635,2.89792 z m -1073.27014,119.90076 -4.5,0.0127 -3.18618,-1.94275 -3.18618,-1.94275 -1.17576,-2.19692 -1.17575,-2.19693 0.46017,-5.10658 0.46017,-5.10659 25.9648,-39.5 25.9648,-39.5 10.35643,-15.5 10.35643,-15.5 13.49447,-19.5 13.49448,-19.5 10.00648,-13.5 10.00648,-13.5 10.07022,-12.5 10.07023,-12.5 19.01684,-22.5 19.01683,-22.5 12.80436,-15.21807 12.80436,-15.21807 6.53837,-5.99124 6.53838,-5.99123 4.21551,-2.0407 4.21551,-2.04069 h 3.6685 3.6685 l 3.26577,2.91929 3.26578,2.91929 -0.0695,4.91565 -0.0695,4.91566 -3.49239,7.00108 -3.4924,7.00109 -9.43806,13.72087 -9.43806,13.72087 -7.10589,10.1931 -7.1059,10.1931 -18.67979,24 -18.67979,24 -5.09875,7.3579 -5.09875,7.35789 1.23502,0.76329 1.23502,0.76329 7.33624,0.66479 7.33623,0.66479 8.81318,-1.07584 8.81318,-1.07585 16,-2.91525 16,-2.91526 12,-1.575 12,-1.575 16.61288,-2.57611 16.61287,-2.57611 0.94426,-0.64377 0.94425,-0.64376 6.23449,-10.5 6.23449,-10.5 14.04808,-19 14.04808,-19 7.95652,-11.90454 7.95652,-11.90453 4.09929,-8.46912 4.09929,-8.46912 2.76268,-8.62634 2.76269,-8.62635 4.69596,-1.19801 4.69597,-1.19802 12.14584,-1.52824 12.14584,-1.52824 17,-1.00357 17,-1.00357 22,-1.05856 22,-1.05856 13.0019,-1.42353 13.0019,-1.42354 10.89454,-2.10243 10.89454,-2.10243 15.09018,-4.96492 15.09018,-4.96492 7.72366,-5.07073 7.72366,-5.07073 h 3.47341 3.47341 l 1.16834,0.72208 1.16835,0.72207 1.46442,3.50485 1.46442,3.50485 -0.6787,4.01719 -0.6787,4.01719 -4.13643,4.4875 -4.13643,4.48749 -5.50132,3.73153 -5.50133,3.73153 -6,3.01695 -6,3.01695 -9.71763,3.10571 -9.71763,3.10571 -11.28237,2.01835 -11.28237,2.01834 -22,2.57353 -22,2.57353 -24.5,0.82089 -24.5,0.8209 -7.14181,1.65697 -7.1418,1.65698 -4.44165,2.81681 -4.44165,2.81681 -4.44627,6.37765 -4.44628,6.37764 -13.37737,21 -13.37738,21 -8.30581,11 -8.30582,11 -2.75402,3.36512 -2.75402,3.36513 2.32772,1.88487 2.32773,1.88488 h 11.42863 11.42863 l 9.71058,-1.04611 9.71059,-1.04611 22,-2.86826 22,-2.86826 5.33576,-0.63145 5.33576,-0.63145 4.41424,4.41424 4.41424,4.41424 v 1.08354 1.08354 l -4.49059,3.08961 -4.49059,3.08961 -8.25941,3.93773 -8.25941,3.93773 -9.5,2.49172 -9.5,2.49172 -12,1.49601 -12,1.49601 -16,1.05225 -16,1.05224 -13.5,1.55765 -13.5,1.55764 -4.08508,1.7939 -4.08508,1.7939 -3.13336,3.87918 -3.13335,3.87918 -4.98963,6.5 -4.98963,6.5 -5.21481,7.5 -5.2148,7.5 -13.22132,18.5 -13.22132,18.5 -5.78236,9.5 -5.78236,9.5 -4.41491,9.5 -4.41491,9.5 -5.90854,12.5009 -5.90854,12.50091 -0.01,1.49909 -0.01,1.4991 -2.55854,5.49675 -2.55855,5.49674 -1.58667,1.75326 -1.58668,1.75325 h -2.22865 -2.22865 l -3.72903,-4.1276 -3.72903,-4.12759 -2.13733,-4.62241 -2.13696,-4.62239 v -11 -11 l 2.42656,-7.40912 2.42657,-7.40912 4.28181,-8.3914 4.28181,-8.39139 6.37919,-9.69949 6.3792,-9.69948 17.06304,-22.85939 17.06304,-22.8594 2.69855,-4.95811 2.69854,-4.95812 -0.34915,-0.33237 -0.34916,-0.33237 -11.5,1.31551 -11.5,1.31551 -29,1.66152 -29,1.66153 -11.2997,1.3819 -11.29971,1.38189 -8.74974,1.60799 -8.74974,1.60798 -1.01478,0.68296 -1.01478,0.68297 -11.84293,14.41445 -11.84293,14.41444 -17.59958,22.58556 -17.59959,22.58555 -12.10014,17 -12.10015,17 -7.39311,10.98209 -7.39312,10.98209 -4,2.25146 -4,2.25146 -4.5,0.0127 z m 228.07856,-314.0999 -2.57856,-0.12009 -4.5,-1.05248 -4.5,-1.05248 -0.73469,-1.07743 -0.73468,-1.07743 -0.0153,-12.59004 -0.0153,-12.59003 1.93456,-7.56408 1.93457,-7.56408 2.48559,-4.90508 2.48559,-4.90508 3.96706,-5.0187 3.96707,-5.01871 5.4182,-3.5964 5.41821,-3.5964 8.90575,-3.686549 8.90575,-3.686545 10.10051,-3.308684 10.10052,-3.308684 8.1828,-1.252645 8.1828,-1.252644 0.66491,0.664903 0.6649,0.664903 -5.26552,5.368439 -5.26552,5.368438 -4.96364,7.388838 -4.96363,7.38883 -6.40343,13 -6.40344,13 -4.25279,6.5 -4.25279,6.5 -8.02402,8.05861 -8.02401,8.05862 -4.92144,3.19138 -4.92145,3.19139 -2.57855,-0.12009 z"
       id="path170" />
    <g
       aria-label="ART"
       id="text247"
       style="font-size:117.333px;line-height:75%;font-family:'Liberation Serif';-inkscape-font-specification:'Liberation Serif';letter-spacing:0px;word-spacing:0px;writing-mode:vertical-lr;fill:none;stroke:#000000;stroke-width:1px">
      <path
         d="m 966.56998,229.91024 -16.89595,-41.94655 q -0.88,-2.05333 -1.70133,-4.92799 -0.352,1.408 -0.76266,2.69866 -0.41067,1.232 -0.88,2.288 l -16.89595,41.88788 z m 18.36262,30.15458 h -4.63466 q -0.82133,0 -1.34933,-0.41067 -0.528,-0.46933 -0.82133,-1.17333 l -9.73864,-24.11193 h -40.77322 l -9.73863,24.11193 q -0.23467,0.64534 -0.82134,1.11467 -0.58666,0.46933 -1.40799,0.46933 h -4.57599 l 33.96791,-83.0131 h 5.92531 z"
         style="font-weight:300;font-family:Lato;-inkscape-font-specification:'Lato Light';writing-mode:lr-tb;fill:#000000;stroke:none"
         id="path173" />
      <path
         d="m 1019.1352,218.05961 q 5.5147,0 9.856,-1.29067 4.4,-1.34933 7.392,-3.81332 3.0506,-2.46399 4.6346,-5.92532 1.584,-3.46132 1.584,-7.80264 0,-8.85864 -5.808,-13.1413 -5.7493,-4.28265 -16.8373,-4.28265 h -15.1946 v 36.2559 z m 36.8426,42.00521 h -5.1627 q -0.9973,0 -1.7013,-0.29333 -0.6453,-0.352 -1.232,-1.232 l -26.6346,-33.67457 q -0.4693,-0.64533 -0.9973,-1.11466 -0.4694,-0.46934 -1.1147,-0.704 -0.5867,-0.29333 -1.4667,-0.41067 -0.8213,-0.11733 -2.0533,-0.11733 h -10.8533 v 37.54656 h -6.04263 v -83.0131 h 21.23723 q 14.3147,0 21.4133,5.57332 7.1573,5.51465 7.1573,16.25062 0,4.75199 -1.6426,8.68264 -1.6427,3.93066 -4.752,6.92265 -3.0507,2.93332 -7.4507,4.81065 -4.3413,1.87733 -9.7973,2.52266 1.408,0.88 2.5227,2.34666 z"
         style="font-weight:300;font-family:Lato;-inkscape-font-specification:'Lato Light';writing-mode:lr-tb;fill:#000000;stroke:none"
         id="path175" />
      <path
         d="m 1120.4524,182.15571 h -29.1572 v 77.90911 h -6.0427 v -77.90911 h -29.3332 v -5.10399 h 64.5331 z"
         style="font-weight:300;font-family:Lato;-inkscape-font-specification:'Lato Light';writing-mode:lr-tb;fill:#000000;stroke:none"
         id="path177" />
    </g>
  </g>
  <metadata
     id="metadata425">
    <rdf:RDF>
      <cc:Work
         rdf:about="">
        <dc:title>Logo for HFGude Art</dc:title>
        <dc:date>2026-01-02</dc:date>
        <dc:creator>
          <cc:Agent>
            <dc:title>Hans F. Gude</dc:title>
          </cc:Agent>
        </dc:creator>
        <cc:license
           rdf:resource="http://creativecommons.org/publicdomain/zero/1.0/" />
      </cc:Work>
      <cc:License
         rdf:about="http://creativecommons.org/publicdomain/zero/1.0/">
        <cc:permits
           rdf:resource="http://creativecommons.org/ns#Reproduction" />
        <cc:permits
           rdf:resource="http://creativecommons.org/ns#Distribution" />
        <cc:permits
           rdf:resource="http://creativecommons.org/ns#DerivativeWorks" />
      </cc:License>
    </rdf:RDF>
  </metadata>
</svg>
